{"title":"San Andreas(2015) - DVDScr - x264 - Telugu audio-[M2TV]","uid":12036501,"size":1297958082,"categoryP":"video","categoryS":"hd___movies","magnet":"?xt=urn:btih:74c3d50013a1c81f854be61ec2ca46850978f457&amp;dn=San+Andreas%282015%29+-+DVDScr+-+x264+-+Telugu+audio-%5BM2TV%5D&amp;tr=udp%3A%2F%2Ftracker.openbittorrent.com%3A80&amp;tr=udp%3A%2F%2Fopen.demonii.com%3A1337&amp;tr=udp%3A%2F%2Ftracker.coppersurfer.tk%3A6969&amp;tr=udp%3A%2F%2Fexodus.desync.com%3A6969","seeders":0,"leechers":1,"uploader":"Urmit","files":11,"time":1434690250,"description":"[center][img]http://i.imgur.com/UYrXj3I.png[/img]\n\n[img]http://www.filmoria.co.uk/wp-content/uploads/2015/04/ANDRS_1SHT_MAIN_INTL_2764x4096_master.jpg[/img]\n\n[size=6][color=blue][b]San Andreas(2015) - DVDScr - x264 - Telugu audio -[M2TV ExClusiVe][/b][/color][/size]\n\n[img]http://i.imgur.com/tWjvQAx.png[/img]\n\n[code]Complete name                            : San Andreas(2015) - DVDScr - x264 - Telugu audio-[M2TV].mkv\nFormat                                   : Matroska\nFormat version                           : Version 4 / Version 2\nFile size                                : 1.19 GiB\nDuration                                 : 1h 47mn\nOverall bit rate                         : 1 587 Kbps\nEncoded date                             : UTC 2015-06-18 16:42:21\nWriting application                      : mkvmerge v6.0.0 ('Coming Up For Air') built on Jan 20 2013 09:52:00\nWriting library                          : libebml v1.3.0 + libmatroska v1.4.0\n\nVideo\nID                                       : 1\nFormat                                   : MPEG-4 Visual\nFormat profile                           : Advanced Simple@L5\nFormat settings, BVOP                    : Yes\nFormat settings, QPel                    : No\nFormat settings, GMC                     : No warppoints\nFormat settings, Matrix                  : Default (H.263)\nCodec ID                                 : V_MS/VFW/FOURCC / XVID\nCodec ID/Hint                            : XviD\nDuration                                 : 1h 47mn\nBit rate                                 : 1 459 Kbps\nWidth                                    : 720 pixels\nHeight                                   : 320 pixels\nDisplay aspect ratio                     : 2.25:1\nFrame rate mode                          : Constant\nFrame rate                               : 25.000 fps\nColor space                              : YUV\nChroma subsampling                       : 4:2:0\nBit depth                                : 8 bits\nScan type                                : Progressive\nCompression mode                         : Lossy\nBits/(Pixel*Frame)                       : 0.253\nStream size                              : 1.10 GiB (92%)\nWriting library                          : XviD 64\nDefault                                  : Yes\nForced                                   : No\n\nAudio\nID                                       : 2\nFormat                                   : MPEG Audio\nFormat version                           : Version 1\nFormat profile                           : Layer 3\nMode                                     : Joint stereo\nMode extension                           : MS Stereo\nCodec ID                                 : A_MPEG/L3\nCodec ID/Hint                            : MP3\nDuration                                 : 1h 47mn\nBit rate mode                            : Constant\nBit rate                                 : 96.0 Kbps\nChannel(s)                               : 2 channels\nSampling rate                            : 44.1 KHz\nCompression mode                         : Lossy\nStream size                              : 73.8 MiB (6%)\nWriting library                          : LAME3.98.2\nDefault                                  : Yes\nForced                                   : No[/code]\n\n[img]http://i.imgur.com/8BaktDs.png[/img]\n[img]http://i.imgur.com/Z3SYvJz.png[/img]\n[img]http://i.imgur.com/hS6TDna.png[/img]\n[img]http://i.imgur.com/fAitvxu.png[/img]\n[size=5][u][i]\n[b]Note :[/b]\n[/i][/u][/size]\n\n[color=blue][size=6][i][b]Wherever you share our stuffs, Always Give Proper Credits To &quot;Team M2Tv&quot;, Enjoy.[/b][/i][/size][/color]\n[/center]","torrent":{"xt":"urn:btih:74c3d50013a1c81f854be61ec2ca46850978f457","amp;dn":"San+Andreas%282015%29+-+DVDScr+-+x264+-+Telugu+audio-%5BM2TV%5D","amp;tr":["udp%3A%2F%2Ftracker.openbittorrent.com%3A80","udp%3A%2F%2Fopen.demonii.com%3A1337","udp%3A%2F%2Ftracker.coppersurfer.tk%3A6969","udp%3A%2F%2Fexodus.desync.com%3A6969"],"infoHash":"74c3d50013a1c81f854be61ec2ca46850978f457","infoHashBuffer":{"type":"Buffer","data":[116,195,213,0,19,161,200,31,133,75,230,30,194,202,70,133,9,120,244,87]},"announce":[],"urlList":[]}}